Coordinates
version=1
nRows=12
nColumns=33
inDegrees=yes

Units are S.I. units (second, meters, Newtons, ...)
Angles are in degrees.

endheader
time	ground_thorax_rot_x	ground_thorax_rot_y	ground_thorax_rot_z	ground_thorax_tx	ground_thorax_ty	ground_thorax_tz	clav_prot_r	clav_elev_r	scapula_abduction_r	scapula_elevation_r	scapula_upward_rot_r	scapula_winging_r	shoulder_elv_r	plane_of_elev_r	axial_rot_r	elbow_flexion_r	pro_sup_r	wrist_flex_r	wrist_dev_r	clav_prot_l	clav_elev_l	scapula_abduction_l	scapula_elevation_l	scapula_upward_rot_l	scapula_winging_l	shoulder_elv_l	plane_of_elev_l	axial_rot_l	elbow_flexion_l	pro_sup_l	wrist_flex_l	wrist_dev_l
      1.85000000	      1.81200250	      4.79560444	     -2.69099707	     -0.15644552	      1.00815436	      0.00773218	    -20.83474229	     -8.70745188	    -25.87238010	     -6.04133313	     11.99360324	      1.41795804	     68.63320238	    -50.69065294	     62.61804801	     86.24459523	     20.52932613	     33.49523094	     -4.64464271	     -1.72239385	     -2.75174905	      0.86379903	     -5.40326136	     -4.94299349	     -0.66048775	     46.61819102	    -51.62301255	    -17.36717625	     88.64365072	     18.53330150	     -5.78172135	    -20.62848357
      1.86000000	      1.83672980	      4.79003856	     -2.65526109	     -0.15649636	      1.00797395	      0.00778353	    -20.83482847	     -8.72910060	    -25.88021092	     -6.05283744	     11.97170378	      1.43147738	     68.59288003	    -50.69787093	     62.62417747	     86.25600259	     20.52975005	     33.46827051	     -4.63934073	     -1.71830374	     -2.75327632	      0.85460144	     -5.39894984	     -4.93608589	     -0.65636123	     46.59504132	    -51.60041255	    -17.38091652	     88.65478415	     18.53587396	     -5.75839428	    -20.62463315
      1.87000000	      1.83678037	      4.79050624	     -2.64968045	     -0.15639721	      1.00769637	      0.00770369	    -20.83467089	     -8.73132996	    -25.88003653	     -6.05523159	     11.97026650	      1.43249420	     68.58986728	    -50.69748136	     62.62388525	     86.25645737	     20.52960161	     33.46626566	     -4.63918767	     -1.71790411	     -2.75446352	      0.85354526	     -5.39688419	     -4.93582294	     -0.65699448	     46.59291434	    -51.59769514	    -17.38199555	     88.65487828	     18.53609338	     -5.75676986	    -20.62424918
      1.88000000	      1.22889393	      5.07924528	     -2.55027788	     -0.15706131	      1.00689292	      0.00723164	    -20.96036724	     -8.78125705	    -26.41022698	     -5.92356885	     11.41522092	      1.57298316	     67.67279839	    -50.53519218	     61.95848322	     86.59928013	     20.41335420	     29.98528202	     -4.65361766	     -1.41450422	     -1.19020013	      0.00754283	     -6.15200514	     -3.26596800	      0.12247509	     44.80823582	    -51.21785221	    -16.71089612	     88.69715236	     18.92728513	     -2.69064047	    -19.69943320
      1.89000000	      1.23106966	      5.07965472	     -2.54388151	     -0.15690234	      1.00668819	      0.00717392	    -20.95998340	     -8.78339494	    -26.40894037	     -5.92673267	     11.41487041	      1.57412720	     67.67114041	    -50.53330952	     61.95768091	     86.60058520	     20.41330193	     29.98564493	     -4.65389974	     -1.41436950	     -1.19140326	      0.00605765	     -6.14959340	     -3.26485657	      0.12183205	     44.80789853	    -51.21509599	    -16.71069504	     88.69779895	     18.92738085	     -2.69067612	    -19.69961240
      1.90000000	      1.25014425	      5.09755913	     -2.45165575	     -0.15719438	      1.00675633	      0.00712527	    -20.95883084	     -8.82622808	    -26.39054502	     -5.96895903	     11.42711610	      1.58962279	     67.65318205	    -50.49723277	     61.92962210	     86.63230869	     20.40969450	     29.99300418	     -4.66336974	     -1.41323868	     -1.21425568	     -0.00515147	     -6.12500671	     -3.25593128	      0.12295516	     44.79190725	    -51.18006591	    -16.71149288	     88.71587713	     18.92898619	     -2.69093253	    -19.70381011
      1.91000000	      1.25121308	      5.10000652	     -2.39271352	     -0.15730190	      1.00675673	      0.00701563	    -20.96346856	     -8.85911447	    -26.38272344	     -6.00437691	     11.44124724	      1.60064428	     67.64525199	    -50.47186997	     61.89510413	     86.65732191	     20.40523448	     29.99883750	     -4.67561438	     -1.41039912	     -1.23661345	     -0.01529206	     -6.10570308	     -3.25867732	      0.12441450	     44.76938221	    -51.15557696	    -16.71701525	     88.72672142	     18.93149588	     -2.68967810	    -19.70640257
      1.92000000	      1.26417006	      5.10266137	     -2.33581221	     -0.15738750	      1.00674426	      0.00696345	    -20.96849696	     -8.89446240	    -26.37444326	     -6.04180767	     11.45634662	      1.61289305	     67.63661466	    -50.44498911	     61.85637338	     86.68353724	     20.39977517	     30.00395791	     -4.68923619	     -1.40684592	     -1.25340639	     -0.02657050	     -6.08934796	     -3.25623375	      0.12405937	     44.75506935	    -51.13368053	    -16.71802791	     88.73703057	     18.93325970	     -2.68886416	    -19.70779652
      1.93000000	      1.26439585	      5.09740867	     -2.28299012	     -0.15744283	      1.00675114	      0.00687040	    -20.97547492	     -8.92967997	    -26.36793038	     -6.07981916	     11.47314674	      1.62380018	     67.62945649	    -50.41795984	     61.81059719	     86.71278480	     20.39269884	     30.00842995	     -4.70507483	     -1.40229142	     -1.27593794	     -0.04148546	     -6.06791879	     -3.25422906	      0.12534630	     44.73918487	    -51.10592475	    -16.71989449	     88.74776415	     18.93486764	     -2.68742780	    -19.70812636
      1.94000000	      1.27152792	      5.09653721	     -2.22871263	     -0.15751383	      1.00673399	      0.00681707	    -20.97995707	     -8.96739031	    -26.35792286	     -6.11930195	     11.48822719	      1.63738661	     67.61755629	    -50.38753207	     61.76522440	     86.74429453	     20.38478479	     30.01158638	     -4.71996878	     -1.39790379	     -1.29712641	     -0.05794430	     -6.04545647	     -3.24710841	      0.12774252	     44.73014018	    -51.07592287	    -16.71829311	     88.75926511	     18.93544147	     -2.68622602	    -19.70721987
      1.95000000	      1.26737268	      5.09158825	     -2.17333089	     -0.15758398	      1.00670965	      0.00673788	    -20.98323651	     -9.00386452	    -26.34623170	     -6.15789605	     11.50380163	      1.65045635	     67.60519582	    -50.35508574	     61.71914600	     86.77688807	     20.37582586	     30.01290889	     -4.73368468	     -1.39270570	     -1.32310050	     -0.07803367	     -6.01734598	     -3.23691350	      0.13122045	     44.72335555	    -51.03800353	    -16.71680979	     88.77179354	     18.93518017	     -2.68469779	    -19.70524452
      1.96000000	      1.26638169	      5.08940266	     -2.11345250	     -0.15766103	      1.00668246	      0.00667936	    -20.98403969	     -9.04442588	    -26.33002097	     -6.19978183	     11.51856816	      1.66563788	     67.58782769	    -50.31726555	     61.67230154	     86.81195567	     20.36564486	     30.01217821	     -4.74591035	     -1.38688874	     -1.34989205	     -0.10091913	     -5.98683338	     -3.22285566	      0.13529739	     44.72107897	    -50.99582396	    -16.71386991	     88.78496632	     18.93390622	     -2.68292928	    -19.70190716
